# xmcd
#
# Track frame offsets:
#	150
#	12655
#	25615
#	36477
#	47950
#	65167
#	77597
#	87825
#	100742
#
# Disc length: 1543 seconds
#
# Revision: 3
# Processed by: cddbd v1.5.2PL0 Copyright (c) Steve Scherf et al.
# Submitted via: EZCDAudioConverter 7.2.0.1
#
DISCID=70060509
DTITLE=Charlie Rich - Country Legends
DYEAR=2004
DGENRE=Country
TTITLE0=Behind Closed Doors
TTITLE1=The Most Beautiful Girl
TTITLE2=There Won't Be Anymore
TTITLE3=Rollin' With The Flow
TTITLE4=My Elusive Dreams
TTITLE5=Who Will The Next Fool Be
TTITLE6=Lonely Weekends
TTITLE7=Good Time Charlie's Got The Blues
TTITLE8=On My Knees (With Janie Frickie)
EXTD=
EXTT0=
EXTT1=
EXTT2=
EXTT3=
EXTT4=
EXTT5=
EXTT6=
EXTT7=
EXTT8=
PLAYORDER=
